# xmcd
#
# Track frame offsets:
#	150
#	25555
#	44321
#	65513
#	90600
#	120719
#	139214
#	169883
#	191639
#	202063
#	243490
#
# Disc length: 3286 seconds
#
# Revision: 1
# Processed by: cddbd v1.5.1PL0 Copyright (c) Steve Scherf et al.
# Submitted via: CDmax 2.0
#
DISCID=9c0cd40b
DTITLE=Jack and Jorma, The Original Acoustic Hot Tuna - Rams Head Tavern, Annap
DTITLE=olis, MD 11-28-00 - d1
DYEAR=2000
DGENRE=Blues
TTITLE0=True Religion
TTITLE1=Trouble In Mind
TTITLE2=The Terrible Operation
TTITLE3=Uncle Sam Blues
TTITLE4=Death Don't Have No Mercy
TTITLE5=Do Not Go Gentle
TTITLE6=I See The Light
TTITLE7=Living In The Moment
TTITLE8=Embryonic Journey
TTITLE9=Good Shepherd
TTITLE10=Watch The North Wind Rise
EXTD=11-28-00 \nRams Head Tavern, Annapolis, MD \nBilled as "Jack and Jorma, Th
EXTD=e Original Acoustic Hot Tuna" \nOpening act: Geoff Achison \n*w/Geoff Ac
EXTD=hison\n\nTrue Religion\nTrouble In Mind\nThe Terrible Operation\nUncle S
EXTD=am Blues\nDeath Don't Have No Mercy\nDo Not Go Gentle\nI See The Light\n
EXTD=Living In The Moment\nEmbryonic Journey\nGood Shepherd\nWatch The Nort
EXTD=h Wind Rise\n99 Year Blues\nI Am The Light Of This World\nAnother Man Do
EXTD=ne Gone ->\nParchman Farm\nHow Long Blues\nA Life Well Lived\nNine Poun
EXTD=d Hammer\nHesitation Blues\n\nEncore:* \nI Just Want To Make Love To You
EXTT0=
EXTT1=
EXTT2=
EXTT3=
EXTT4=
EXTT5=
EXTT6=
EXTT7=
EXTT8=
EXTT9=
EXTT10=
PLAYORDER=
